<?xml version="1.0" standalone="no"?>
<!DOCTYPE svg PUBLIC "-//W3C//DTD SVG 20010904//EN"
 "http://www.w3.org/TR/2001/REC-SVG-20010904/DTD/svg10.dtd">
<svg version="1.0" xmlns="http://www.w3.org/2000/svg"
 width="70.000000pt" height="70.000000pt" viewBox="0 0 70.000000 70.000000"
 preserveAspectRatio="xMidYMid meet">
<metadata>
Created by potrace 1.11, written by Peter Selinger 2001-2013
</metadata>
<g transform="translate(0.000000,70.000000) scale(0.100000,-0.100000)"
fill="#000000" stroke="none">
<path d="M274 629 c-59 -17 -128 -72 -162 -129 -18 -30 -38 -57 -45 -59 -19
-6 -47 -42 -54 -69 -9 -38 10 -85 46 -109 18 -12 46 -43 62 -68 70 -111 239
-156 357 -96 60 31 98 67 124 119 13 26 38 61 56 79 18 18 32 42 32 55 -1 25
-21 58 -37 58 -6 0 -25 29 -42 64 -34 69 -79 113 -150 144 -45 21 -138 26
-187 11z"/>
</g>
</svg>
